<?xml version="1.0" encoding="UTF-8"?>
<svg version="1.1" xmlns="http://www.w3.org/2000/svg" width="64" height="64">
<path d="M0 0 C21.12 0 42.24 0 64 0 C64 21.12 64 42.24 64 64 C42.88 64 21.76 64 0 64 C0 42.88 0 21.76 0 0 Z " fill="#050505" transform="translate(0,0)"/>
<path d="M0 0 C3.3 0 6.6 0 10 0 C9.67 1.32 9.34 2.64 9 4 C6.03 3.505 6.03 3.505 3 3 C3.45375 3.45375 3.9075 3.9075 4.375 4.375 C5.58333333 5.58333333 6.79166667 6.79166667 8 8 C8.33 7.01 8.66 6.02 9 5 C12 5 12 5 15 6 C17.05270463 4.15811388 17.05270463 4.15811388 18 2 C18.66 2 19.32 2 20 2 C20.99 3.485 20.99 3.485 22 5 C22.556875 4.649375 23.11375 4.29875 23.6875 3.9375 C26.60812085 2.75346452 27.98962428 3.19233822 31 4 C31.928125 4.185625 32.85625 4.37125 33.8125 4.5625 C34.534375 4.706875 35.25625 4.85125 36 5 C36 5.66 36 6.32 36 7 C37.95894361 6.88693303 37.95894361 6.88693303 40 6 C41.29660434 3.50965614 41.29660434 3.50965614 42 1 C44.375 1.3125 44.375 1.3125 47 2 C49 5 49 5 48.875 6.9375 C47.7061143 9.69273058 46.32815166 11.12454449 44 13 C41.25 13.75 41.25 13.75 39 14 C38.67 15.32 38.34 16.64 38 18 C41.96 17.01 45.92 16.02 50 15 C50.16920005 17.37484362 50.33542863 19.74983478 50.5 22.125 C50.54769531 22.79015625 50.59539063 23.4553125 50.64453125 24.140625 C50.91641462 28.10235414 51.04947806 32.02938555 51 36 C50.34 36 49.68 36 49 36 C49.515625 37.0725 50.03125 38.145 50.5625 39.25 C51.88455186 42.2999429 52.13969707 43.8088482 51 47 C51.33 47.99 51.66 48.98 52 50 C50.68 50 49.36 50 48 50 C48 47.69 48 45.38 48 43 C45.03 42.505 45.03 42.505 42 42 C42 41.34 42 40.68 42 40 C39.36 39.67 36.72 39.34 34 39 C33.67 39.99 33.34 40.98 33 42 C28.90595409 41.4531899 24.81256368 40.90173485 20.71972656 40.34594727 C19.32699585 40.15749035 17.93409195 39.97030878 16.54101562 39.78442383 C14.5399146 39.51718277 12.53947683 39.24498988 10.5390625 38.97265625 C9.33459473 38.81031494 8.13012695 38.64797363 6.88916016 38.48071289 C4 38 4 38 2 37 C1.67 41.29 1.34 45.58 1 50 C0.67 50 0.34 50 0 50 C0 37.46 0 24.92 0 12 C1.32 11.34 2.64 10.68 4 10 C3.67 9.01 3.34 8.02 3 7 C2.34 6.67 1.68 6.34 1 6 C0.375 2.9375 0.375 2.9375 0 0 Z " fill="#F5F5F5" transform="translate(6,7)"/>
<path d="M0 0 C2.375 0.3125 2.375 0.3125 5 1 C7 4 7 4 6.875 5.9375 C5.7061143 8.69273058 4.32815166 10.12454449 2 12 C-0.75 12.75 -0.75 12.75 -3 13 C-2.979375 14.299375 -2.95875 15.59875 -2.9375 16.9375 C-2.91600546 18.29165633 -2.92851801 19.64756083 -3 21 C-3.33 21.33 -3.66 21.66 -4 22 C-2.989375 22.639375 -1.97875 23.27875 -0.9375 23.9375 C0.73046875 25.2890625 0.73046875 25.2890625 2 27 C2.23574867 30.13283784 1.72936048 32.95657765 1 36 C-6.34101594 35.4431964 -13.67287912 34.77778489 -21 34.0625 C-21.8247583 33.98789551 -22.6495166 33.91329102 -23.49926758 33.83642578 C-24.28325928 33.75763184 -25.06725098 33.67883789 -25.875 33.59765625 C-26.57367188 33.53070557 -27.27234375 33.46375488 -27.9921875 33.39477539 C-30.25248924 32.95035565 -31.99135656 32.10987683 -34 31 C-33.93993922 29.54052295 -33.8511311 28.08220728 -33.75 26.625 C-33.68039063 25.40683594 -33.68039063 25.40683594 -33.609375 24.1640625 C-33 22 -33 22 -31.265625 20.7109375 C-28.72948382 19.91511389 -26.64298629 19.85316743 -24 20 C-24.02320313 19.25234375 -24.04640625 18.5046875 -24.0703125 17.734375 C-24.09738281 16.25710937 -24.09738281 16.25710937 -24.125 14.75 C-24.14820313 13.77546875 -24.17140625 12.8009375 -24.1953125 11.796875 C-23.9947291 8.92452072 -23.58450415 7.37940589 -22 5 C-18.9692609 3.04685703 -17.07550191 1.89507298 -13.4375 2.25 C-12.633125 2.4975 -11.82875 2.745 -11 3 C-10.071875 3.185625 -9.14375 3.37125 -8.1875 3.5625 C-7.1046875 3.7790625 -7.1046875 3.7790625 -6 4 C-6 4.66 -6 5.32 -6 6 C-4.04105639 5.88693303 -4.04105639 5.88693303 -2 5 C-0.70339566 2.50965614 -0.70339566 2.50965614 0 0 Z " fill="#232323" transform="translate(48,8)"/>
<path d="M0 0 C0.16920005 2.37484362 0.33542863 4.74983478 0.5 7.125 C0.54769531 7.79015625 0.59539063 8.4553125 0.64453125 9.140625 C0.91641462 13.10235414 1.04947806 17.02938555 1 21 C0.34 21 -0.32 21 -1 21 C-0.484375 22.0725 0.03125 23.145 0.5625 24.25 C1.88455186 27.2999429 2.13969707 28.8088482 1 32 C1.33 32.99 1.66 33.98 2 35 C0.68 35 -0.64 35 -2 35 C-2 32.69 -2 30.38 -2 28 C-3.98 27.67 -5.96 27.34 -8 27 C-8 26.34 -8 25.68 -8 25 C-10.64 24.67 -13.28 24.34 -16 24 C-16.33 24.99 -16.66 25.98 -17 27 C-20.39616487 26.52316428 -23.79186868 26.04311931 -27.1875 25.5625 C-28.14720703 25.42779297 -29.10691406 25.29308594 -30.09570312 25.15429688 C-31.02705078 25.02216797 -31.95839844 24.89003906 -32.91796875 24.75390625 C-33.77156982 24.63345947 -34.6251709 24.5130127 -35.50463867 24.38891602 C-38.02066964 23.99677852 -40.50697664 23.51734627 -43 23 C-42.34 21.35 -41.68 19.7 -41 18 C-41.66 17.67 -42.32 17.34 -43 17 C-16.82345757 20.16887304 -16.82345757 20.16887304 -7 22 C-6.77110342 18.96712026 -6.64402625 16.02577686 -7 13 C-8.7677812 11.04841514 -8.7677812 11.04841514 -11 10 C-11.66 9.01 -12.32 8.02 -13 7 C-12.34 7 -11.68 7 -11 7 C-11 5.68 -11 4.36 -11 3 C-9.54293274 2.49632243 -8.08429904 1.99717444 -6.625 1.5 C-5.40683594 1.08234375 -5.40683594 1.08234375 -4.1640625 0.65625 C-2 0 -2 0 0 0 Z " fill="#F8F8F8" transform="translate(56,22)"/>
<path d="M0 0 C5.50623441 2.39401496 5.50623441 2.39401496 7.375 4.6875 C8.72964754 9.69969589 8.87488978 13.47704371 6.3125 17.9375 C3.69837552 20.26901643 2.49583859 21 -1 21 C-3.83713564 19.61442213 -5.77001704 18.22998296 -8 16 C-8.57054689 12.94306984 -8.52779202 10.06119372 -8 7 C-5.6875 3.9375 -5.6875 3.9375 -3 2 C-2.01 2 -1.02 2 0 2 C0 1.34 0 0.68 0 0 Z " fill="#F6F6F6" transform="translate(34,10)"/>
<path d="M0 0 C1.65 0 3.3 0 5 0 C5.33 0.33 5.66 0.66 6 1 C8.69235776 1.23678716 11.36498156 1.42198025 14.0625 1.5625 C15.20041992 1.62727539 15.20041992 1.62727539 16.36132812 1.69335938 C18.24065438 1.79973633 20.12030244 1.90039934 22 2 C21.01 3.485 21.01 3.485 20 5 C20.66 5.66 21.32 6.32 22 7 C21.01 8.485 21.01 8.485 20 10 C17.84521484 10.34057617 17.84521484 10.34057617 15.2109375 10.29296875 C14.26992188 10.28330078 13.32890625 10.27363281 12.359375 10.26367188 C11.37453125 10.23853516 10.3896875 10.21339844 9.375 10.1875 C7.88613281 10.16719727 7.88613281 10.16719727 6.3671875 10.14648438 C3.91122839 10.11106189 1.45554718 10.05725369 -1 10 C-0.67 6.7 -0.34 3.4 0 0 Z " fill="#181818" transform="translate(22,53)"/>
<path d="M0 0 C0.66 0.33 1.32 0.66 2 1 C1.67 2.98 1.34 4.96 1 7 C2.98 6.34 4.96 5.68 7 5 C7 5.66 7 6.32 7 7 C10.00778521 8.00259507 12.53820647 8.30314642 15.6875 8.5625 C16.68136719 8.64628906 17.67523438 8.73007812 18.69921875 8.81640625 C19.45847656 8.87699219 20.21773437 8.93757813 21 9 C21 7.02 21 5.04 21 3 C21.66 3 22.32 3 23 3 C23 2.01 23 1.02 23 0 C23.66 0.33 24.32 0.66 25 1 C25.721875 1.33 26.44375 1.66 27.1875 2 C29 4 29 4 29.03515625 6.19921875 C28.77272161 8.48923063 28.43645458 10.73707787 28 13 C20.61449504 12.43982198 13.24326197 11.75068391 5.875 11 C5.03348389 10.9170166 4.19196777 10.8340332 3.32495117 10.74853516 C-2.76718248 10.11640876 -2.76718248 10.11640876 -5 9 C-5 8.01 -5 7.02 -5 6 C-3.68 6.33 -2.36 6.66 -1 7 C-0.67 4.69 -0.34 2.38 0 0 Z " fill="#141414" transform="translate(21,31)"/>
<path d="M0 0 C3.8542957 0.47813238 7.70841259 0.95769178 11.5625 1.4375 C12.64853516 1.57220703 13.73457031 1.70691406 14.85351562 1.84570312 C20.24327704 2.51737552 25.6268315 3.20597367 31 4 C31.33 4.99 31.66 5.98 32 7 C30.35 7 28.7 7 27 7 C26.67 7.99 26.34 8.98 26 10 C22.60383513 9.52316428 19.20813132 9.04311931 15.8125 8.5625 C14.37293945 8.36043945 14.37293945 8.36043945 12.90429688 8.15429688 C11.97294922 8.02216797 11.04160156 7.89003906 10.08203125 7.75390625 C9.22843018 7.63345947 8.3748291 7.5130127 7.49536133 7.38891602 C4.97933036 6.99677852 2.49302336 6.51734627 0 6 C0.66 4.35 1.32 2.7 2 1 C1.34 0.67 0.68 0.34 0 0 Z " fill="#B3B3B3" transform="translate(13,39)"/>
<path d="M0 0 C2.375 0.3125 2.375 0.3125 5 1 C7 4 7 4 6.875 5.9375 C5.7061143 8.69273058 4.32815166 10.12454449 2 12 C-0.75 12.75 -0.75 12.75 -3 13 C-3 15.64 -3 18.28 -3 21 C-3.66 20.67 -4.32 20.34 -5 20 C-5.63801836 17.4684134 -6.16687368 15.00160498 -6.625 12.4375 C-6.7590625 11.72658203 -6.893125 11.01566406 -7.03125 10.28320312 C-7.36191847 8.52357447 -7.68195767 6.76195452 -8 5 C-7.34 4.67 -6.68 4.34 -6 4 C-6 4.66 -6 5.32 -6 6 C-4.04105639 5.88693303 -4.04105639 5.88693303 -2 5 C-0.70339566 2.50965614 -0.70339566 2.50965614 0 0 Z " fill="#7C7C7C" transform="translate(48,8)"/>
<path d="M0 0 C1.24523437 0.02707031 2.49046875 0.05414062 3.7734375 0.08203125 C4.71445312 0.11683594 5.65546875 0.15164063 6.625 0.1875 C7.00718767 1.84364657 7.33895102 3.51207024 7.625 5.1875 C6.625 6.1875 6.625 6.1875 3.75390625 6.28515625 C2.57699219 6.27355469 1.40007813 6.26195312 0.1875 6.25 C-0.98683594 6.24097656 -2.16117188 6.23195313 -3.37109375 6.22265625 C-4.36238281 6.21105469 -5.35367188 6.19945312 -6.375 6.1875 C-7.035 6.1875 -7.695 6.1875 -8.375 6.1875 C-11.04166667 6.1875 -13.70833333 6.1875 -16.375 6.1875 C-16.705 5.5275 -17.035 4.8675 -17.375 4.1875 C-17.045 3.1975 -16.715 2.2075 -16.375 1.1875 C-15.385 1.1875 -14.395 1.1875 -13.375 1.1875 C-13.375 1.8475 -13.375 2.5075 -13.375 3.1875 C-12.53710938 2.69636719 -11.69921875 2.20523437 -10.8359375 1.69921875 C-6.91249169 -0.01452112 -4.25436792 -0.12040664 0 0 Z " fill="#121212" transform="translate(38.375,-0.1875)"/>
<path d="M0 0 C1.32 0.33 2.64 0.66 4 1 C4 1.66 4 2.32 4 3 C4.66 2.34 5.32 1.68 6 1 C9.2578125 1.0234375 9.2578125 1.0234375 13.125 1.375 C14.40632813 1.48585937 15.68765625 1.59671875 17.0078125 1.7109375 C18.48894531 1.85402344 18.48894531 1.85402344 20 2 C21.125 5.75 21.125 5.75 20 8 C18.25034642 8.05429959 16.50020213 8.09292823 14.75 8.125 C13.77546875 8.14820313 12.8009375 8.17140625 11.796875 8.1953125 C8.96593203 7.99762095 7.41958364 7.40957396 5 6 C4.67 6 4.34 6 4 6 C2.68 6 1.36 6 0 6 C0 4.02 0 2.04 0 0 Z " fill="#9F9F9F" transform="translate(22,32)"/>
<path d="M0 0 C0.99 0 1.98 0 3 0 C3 3.3 3 6.6 3 10 C2.34 9.67 1.68 9.34 1 9 C-1.1330477 9.5460792 -1.1330477 9.5460792 -3.4375 10.4375 C-6.24346352 11.46835645 -7.97296354 12 -11 12 C-11 10.35 -11 8.7 -11 7 C-9.6696875 6.938125 -9.6696875 6.938125 -8.3125 6.875 C-4.82094054 5.95270127 -4.38302947 5.62035069 -2.3125 2.9375 C-1.1678125 1.4834375 -1.1678125 1.4834375 0 0 Z " fill="#2D2D2D" transform="translate(55,13)"/>
<path d="M0 0 C1.65 0 3.3 0 5 0 C5.99 1.98 6.98 3.96 8 6 C9.32 5.67 10.64 5.34 12 5 C12 6.65 12 8.3 12 10 C7.71 10 3.42 10 -1 10 C-0.67 6.7 -0.34 3.4 0 0 Z " fill="#5A5A5A" transform="translate(22,53)"/>
<path d="M0 0 C0 0.66 0 1.32 0 2 C2.31 2 4.62 2 7 2 C6.01 2.33 5.02 2.66 4 3 C4 3.66 4 4.32 4 5 C4.66 5.33 5.32 5.66 6 6 C2 6 2 6 0.375 4.5625 C-0.07875 4.046875 -0.5325 3.53125 -1 3 C-1.66 2.67 -2.32 2.34 -3 2 C-3.33 4.31 -3.66 6.62 -4 9 C-5.32 8.67 -6.64 8.34 -8 8 C-8 8.66 -8 9.32 -8 10 C-8.66 10 -9.32 10 -10 10 C-9.93993922 8.54052295 -9.8511311 7.08220728 -9.75 5.625 C-9.70359375 4.81289063 -9.6571875 4.00078125 -9.609375 3.1640625 C-9 1 -9 1 -7.125 -0.3125 C-4.42974361 -1.18449471 -2.69413713 -0.74837142 0 0 Z " fill="#747474" transform="translate(24,29)"/>
<path d="M0 0 C3.96 0 7.92 0 12 0 C12 0.99 12 1.98 12 3 C10.68 2.67 9.36 2.34 8 2 C8.33 2.99 8.66 3.98 9 5 C5.21812119 6.83691257 3.05431692 7.15837626 -1 6 C-1.33 6.66 -1.66 7.32 -2 8 C-5 7 -5 7 -6.1875 4.9375 C-6.5896875 3.9784375 -6.5896875 3.9784375 -7 3 C-3.25 1.875 -3.25 1.875 -1 3 C-0.67 2.01 -0.34 1.02 0 0 Z " fill="#555555" transform="translate(16,7)"/>
<path d="M0 0 C0.66 0.66 1.32 1.32 2 2 C2.66 1.34 3.32 0.68 4 0 C5.32 0 6.64 0 8 0 C8.5745952 3.73486879 9 7.21293268 9 11 C7.68 11 6.36 11 5 11 C5 8.69 5 6.38 5 4 C2.03 3.505 2.03 3.505 -1 3 C-0.67 2.01 -0.34 1.02 0 0 Z " fill="#CECECE" transform="translate(49,46)"/>
<path d="M0 0 C1.32 0 2.64 0 4 0 C4 0.66 4 1.32 4 2 C6.31 2.33 8.62 2.66 11 3 C10.67 3.99 10.34 4.98 10 6 C4.72 5.34 -0.56 4.68 -6 4 C-6 3.01 -6 2.02 -6 1 C-4.02 1 -2.04 1 0 1 C0 0.67 0 0.34 0 0 Z " fill="#EFEFEF" transform="translate(29,43)"/>
<path d="M0 0 C3.3 0 6.6 0 10 0 C9.67 1.32 9.34 2.64 9 4 C6.03 3.505 6.03 3.505 3 3 C3.99 3.99 4.98 4.98 6 6 C5.01 7.485 5.01 7.485 4 9 C1.47740939 7.02579865 1.0070192 6.03254358 0.3125 2.8125 C0.209375 1.884375 0.10625 0.95625 0 0 Z " fill="#A3A3A3" transform="translate(6,7)"/>
<path d="M0 0 C0.66 0 1.32 0 2 0 C2.66 0.66 3.32 1.32 4 2 C4.66 1.34 5.32 0.68 6 0 C5.67 1.65 5.34 3.3 5 5 C0.71 5 -3.58 5 -8 5 C-8 3.68 -8 2.36 -8 1 C-5.36 1.33 -2.72 1.66 0 2 C0 1.34 0 0.68 0 0 Z " fill="#CECECE" transform="translate(40,1)"/>
<path d="M0 0 C0.33 0.99 0.66 1.98 1 3 C-2.17320782 6.53586014 -4.16743695 8.58578031 -9 9 C-9.33 7.35 -9.66 5.7 -10 4 C-9.01 3.34 -8.02 2.68 -7 2 C-6.01 2.33 -5.02 2.66 -4 3 C-4.33 3.66 -4.66 4.32 -5 5 C-4.34 5 -3.68 5 -3 5 C-3 4.34 -3 3.68 -3 3 C-1.5 1.375 -1.5 1.375 0 0 Z " fill="#CBCBCB" transform="translate(54,12)"/>
<path d="M0 0 C0 0.66 0 1.32 0 2 C-0.78375 2.268125 -1.5675 2.53625 -2.375 2.8125 C-5.28114923 3.84814432 -5.28114923 3.84814432 -7 7 C-7.44429438 9.04869074 -7.81294195 11.11454293 -8.125 13.1875 C-8.29257812 14.27417969 -8.46015625 15.36085938 -8.6328125 16.48046875 C-8.75398438 17.31191406 -8.87515625 18.14335937 -9 19 C-9.66 18.67 -10.32 18.34 -11 18 C-10.88529863 16.24929483 -10.75780972 14.49942464 -10.625 12.75 C-10.55539063 11.77546875 -10.48578125 10.8009375 -10.4140625 9.796875 C-10.00713483 7.04819373 -9.51691022 5.31148225 -8 3 C-2.85714286 0 -2.85714286 0 0 0 Z " fill="#464646" transform="translate(34,10)"/>
<path d="M0 0 C0.66 0.33 1.32 0.66 2 1 C1.67 2.65 1.34 4.3 1 6 C-2.63 6 -6.26 6 -10 6 C-10 5.34 -10 4.68 -10 4 C-6.86501708 2.14223235 -4.62528568 1.79859524 -1 2 C-0.67 1.34 -0.34 0.68 0 0 Z " fill="#D8D8D8" transform="translate(41,34)"/>
<path d="M0 0 C0.66 0 1.32 0 2 0 C2.6875 1.75 2.6875 1.75 3 4 C1.5625 6.25 1.5625 6.25 0 8 C-0.33 7.67 -0.66 7.34 -1 7 C-2.34747084 6.76924918 -3.70377565 6.58846937 -5.0625 6.4375 C-6.361875 6.293125 -7.66125 6.14875 -9 6 C-9 5.01 -9 4.02 -9 3 C-6 3 -6 3 -3 4 C-0.94729537 2.15811388 -0.94729537 2.15811388 0 0 Z " fill="#B5B5B5" transform="translate(24,9)"/>
<path d="M0 0 C0.99 0 1.98 0 3 0 C3 0.99 3 1.98 3 3 C3.66 3.33 4.32 3.66 5 4 C5.33 3.34 5.66 2.68 6 2 C5.67 3.98 5.34 5.96 5 8 C3.68 7.67 2.36 7.34 1 7 C1 7.66 1 8.32 1 9 C0.34 9 -0.32 9 -1 9 C-0.67 6.03 -0.34 3.06 0 0 Z " fill="#5A5A5A" transform="translate(15,30)"/>
<path d="M0 0 C0.33 0.66 0.66 1.32 1 2 C1.99 2.33 2.98 2.66 4 3 C4 7.62 4 12.24 4 17 C3.34 16.67 2.68 16.34 2 16 C1.33369373 13.48740896 0.78717426 11.04874358 0.3125 8.5 C0.17005859 7.79746094 0.02761719 7.09492188 -0.11914062 6.37109375 C-0.46405395 4.58989957 -0.73784439 2.79524159 -1 1 C-0.67 0.67 -0.34 0.34 0 0 Z " fill="#575757" transform="translate(41,12)"/>
<path d="M0 0 C0 0.66 0 1.32 0 2 C-1.32 2 -2.64 2 -4 2 C-4 2.66 -4 3.32 -4 4 C-5.65 4.66 -7.3 5.32 -9 6 C-9 7.65 -9 9.3 -9 11 C-11 10 -11 10 -13 7 C-12.34 7 -11.68 7 -11 7 C-11 5.68 -11 4.36 -11 3 C-9.54293274 2.49632243 -8.08429904 1.99717444 -6.625 1.5 C-5.81289063 1.2215625 -5.00078125 0.943125 -4.1640625 0.65625 C-2 0 -2 0 0 0 Z " fill="#C6C6C6" transform="translate(56,22)"/>
<path d="M0 0 C0.99 0 1.98 0 3 0 C3 3.3 3 6.6 3 10 C1.02 9.34 -0.96 8.68 -3 8 C-2.34 7.67 -1.68 7.34 -1 7 C-0.59270772 4.67843403 -0.25561323 2.3431213 0 0 Z " fill="#2B2B2B" transform="translate(55,13)"/>
<path d="M0 0 C0.99 0 1.98 0 3 0 C3 0.66 3 1.32 3 2 C4.98 1.67 6.96 1.34 9 1 C8.67 2.32 8.34 3.64 8 5 C5.36 5 2.72 5 0 5 C-0.33 4.34 -0.66 3.68 -1 3 C-0.67 2.01 -0.34 1.02 0 0 Z " fill="#BEBEBE" transform="translate(22,1)"/>
<path d="M0 0 C2.475 0.495 2.475 0.495 5 1 C5 1.66 5 2.32 5 3 C6.32 3.33 7.64 3.66 9 4 C9 4.99 9 5.98 9 7 C6.03 6.67 3.06 6.34 0 6 C0.66 4.35 1.32 2.7 2 1 C1.34 0.67 0.68 0.34 0 0 Z " fill="#8F8F8F" transform="translate(13,39)"/>
<path d="M0 0 C2.875 -0.125 2.875 -0.125 6 0 C6.66 0.66 7.32 1.32 8 2 C7.01 3.485 7.01 3.485 6 5 C2.375 5.1875 2.375 5.1875 -1 5 C-0.67 3.35 -0.34 1.7 0 0 Z " fill="#A8A8A8" transform="translate(36,58)"/>
<path d="M0 0 C0.99 0.33 1.98 0.66 3 1 C3 2.32 3 3.64 3 5 C-0.3 5 -3.6 5 -7 5 C-7 4.34 -7 3.68 -7 3 C-4.69 2.34 -2.38 1.68 0 1 C0 0.67 0 0.34 0 0 Z " fill="#606060" transform="translate(41,29)"/>
<path d="M0 0 C2.31 0 4.62 0 7 0 C6.67 0.99 6.34 1.98 6 3 C4.3125 3.625 4.3125 3.625 2 4 C0.9275 4.185625 -0.145 4.37125 -1.25 4.5625 C-2.1575 4.706875 -3.065 4.85125 -4 5 C-4.33 4.01 -4.66 3.02 -5 2 C-3.68 2 -2.36 2 -1 2 C-0.67 1.34 -0.34 0.68 0 0 Z " fill="#EDEDED" transform="translate(34,34)"/>
<path d="M0 0 C3.96 0 7.92 0 12 0 C12 0.99 12 1.98 12 3 C8.04 3 4.08 3 0 3 C0 2.01 0 1.02 0 0 Z " fill="#7F7F7F" transform="translate(16,7)"/>
<path d="M0 0 C1.65 0.33 3.3 0.66 5 1 C4.67 2.32 4.34 3.64 4 5 C2.35 4.67 0.7 4.34 -1 4 C-0.67 2.68 -0.34 1.36 0 0 Z " fill="#252525" transform="translate(32,20)"/>
<path d="M0 0 C1.32 0.33 2.64 0.66 4 1 C3.814375 1.598125 3.62875 2.19625 3.4375 2.8125 C2.77906313 5.16408762 2.77906313 5.16408762 4 8 C2.68 8 1.36 8 0 8 C0 5.36 0 2.72 0 0 Z " fill="#A6A6A6" transform="translate(54,49)"/>
<path d="M0 0 C1.32 0.33 2.64 0.66 4 1 C4.33 2.32 4.66 3.64 5 5 C3.35 5.33 1.7 5.66 0 6 C0 4.02 0 2.04 0 0 Z " fill="#F6F6F6" transform="translate(22,32)"/>
<path d="M0 0 C3.3 0 6.6 0 10 0 C10.33 0.99 10.66 1.98 11 3 C9.54257537 3.08096803 8.08387193 3.13917774 6.625 3.1875 C5.81289063 3.22230469 5.00078125 3.25710937 4.1640625 3.29296875 C3.44992188 3.19628906 2.73578125 3.09960938 2 3 C1.34 2.01 0.68 1.02 0 0 Z " fill="#BCBCBC" transform="translate(34,43)"/>
<path d="M0 0 C0.99 0.33 1.98 0.66 3 1 C3.99 1 4.98 1 6 1 C6 2.32 6 3.64 6 5 C4.35 5 2.7 5 1 5 C0.67 3.35 0.34 1.7 0 0 Z " fill="#B3B3B3" transform="translate(28,58)"/>
<path d="M0 0 C0.66 0 1.32 0 2 0 C2.625 1.875 2.625 1.875 3 4 C1 6 1 6 -2.125 6.125 C-3.548125 6.063125 -3.548125 6.063125 -5 6 C-3.38405168 3.95880212 -1.7143618 1.95927063 0 0 Z " fill="#111111" transform="translate(41,25)"/>
<path d="M0 0 C0.68707555 2.49064888 1 4.37886292 1 7 C-0.32 7 -1.64 7 -3 7 C-2.25 2.25 -2.25 2.25 0 0 Z " fill="#545454" transform="translate(53,16)"/>
<path d="M0 0 C0.33 0.99 0.66 1.98 1 3 C1.99 3.33 2.98 3.66 4 4 C4 4.99 4 5.98 4 7 C2.68 7.33 1.36 7.66 0 8 C0 5.36 0 2.72 0 0 Z " fill="#3D3D3D" transform="translate(6,10)"/>
<path d="M0 0 C-0.99 1.485 -0.99 1.485 -2 3 C-5.125 3.1875 -5.125 3.1875 -8 3 C-8 2.34 -8 1.68 -8 1 C-4.93251126 -0.86240388 -3.40254489 -1.2151946 0 0 Z " fill="#7E7E7E" transform="translate(39,37)"/>
<path d="M0 0 C0.66 0.33 1.32 0.66 2 1 C1.67 2.65 1.34 4.3 1 6 C0.34 6 -0.32 6 -1 6 C-1 6.66 -1 7.32 -1 8 C-1.66 8 -2.32 8 -3 8 C-2.690625 7.236875 -2.38125 6.47375 -2.0625 5.6875 C-1.32106407 3.81210323 -0.63771783 1.91315348 0 0 Z " fill="#727272" transform="translate(52,9)"/>
<path d="M0 0 C5.75 -0.125 5.75 -0.125 8 1 C8 1.66 8 2.32 8 3 C5.36 2.67 2.72 2.34 0 2 C0 1.34 0 0.68 0 0 Z " fill="#5C5C5C" transform="translate(40,46)"/>
<path d="M0 0 C0.99 0.33 1.98 0.66 3 1 C2.67 1.33 2.34 1.66 2 2 C2.99 3.485 2.99 3.485 4 5 C3.34 5.66 2.68 6.32 2 7 C0.4375 5.75 0.4375 5.75 -1 4 C-0.6875 1.8125 -0.6875 1.8125 0 0 Z " fill="#B8B8B8" transform="translate(8,9)"/>
</svg>
